<svg xmlns="http://www.w3.org/2000/svg" viewBox="0 0 91.787 85.469"><metadata>© 2026 Chris Caron. All rights reserved. Apprise logo and associated marks. https://github.com/caronc/apprise</metadata><path fill="#0f5f57" d="M17.458 30.031c2.5 10.378 3.422 21.684 4.763 32.279l16.668-2.381c-2.63 4.297-5.278 8.594-7.784 12.965-1.03 1.795-2.88 3.967-3.032 6.085-.27 3.776 7.448 8.334 10.524 5.717 1.748-1.487 2.904-4.274 4.036-6.246 2.188-3.812 4.535-7.514 6.636-11.377.887-1.63 2.498-6.127 4.448-6.563 1.936-.434 4.728.819 6.604 1.271 7.034 1.698 13.98 4.805 20.108 8.62 3.031 1.887 7.63 6 10.675 1.695 1.015-1.436.659-3.14.437-4.758-.472-3.445-1.06-6.872-1.513-10.32-1.836-13.96-4.206-27.85-6.085-41.803-.53-3.938-.506-9.004-1.966-12.7C81.375.992 79.787.003 78.159 0c-3.189-.004-4.847 3.382-6.75 5.425-4.108 4.41-8.549 8.356-13.47 11.828C45.61 25.95 32.074 28.182 17.458 30.03m56.62-5.821 2.911 27.781H56.881c2.708-6.47 7.299-12.577 11-18.521 1.813-2.911 3.582-7.035 6.198-9.26m-60.06 38.629c-.81-10.251-2.615-20.848-4.498-30.956C.438 34.758-2.27 46.946 1.93 54.637c2.548 4.666 7.008 7.216 12.088 8.202z"/></svg>